<svg xmlns="http://www.w3.org/2000/svg" viewBox="100 0 1760 1000" style="enable-background:new 0 0 1953.2 1000"
	xml:space="preserve">
	<path
		d="M94.25 682.47V316.59h5.17c38.5 0 77-.18 115.5.05 34.21.21 67.32 6.08 98.14 21.61 52.1 26.25 81.51 69.17 90.81 126.13 6.07 37.15 3.57 73.88-10.32 109.13-21.03 53.37-61.05 85.54-115.45 100.9-20.47 5.78-41.45 8.26-62.71 8.26-39 .01-78 .01-117 0-1.29.01-2.59-.12-4.14-.2zm76.45-75.88c11.52 0 22.64-.11 33.76.03 15.86.2 31.64-.41 47.15-4.1 28.27-6.72 51.46-20.64 65.75-46.9 11.29-20.73 13.78-43.23 12.48-66.34-2.67-47.53-29.98-80.37-76.15-91.88-27.06-6.74-54.6-4.47-82.02-4.54-.25 0-.51.38-.98.75.01 70.59.01 141.35.01 212.98zm1503.71-290.03c102.42 0 184.57 81.96 184.53 184.12-.03 101.07-82.73 182.84-184.86 182.8-101.72-.04-184.09-82.22-184.06-183.63.03-101.31 82.5-183.29 184.39-183.29zm110.31 183.33c-.1-60.41-49.35-109.39-110.07-109.45-60.95-.06-110.42 49.13-110.32 109.69.1 60.64 49.58 109.62 110.56 109.45 60.69-.17 109.92-49.34 109.83-109.69zM774.27 536.85H628.3v-75.84h145.78V316.87h76.67v144.01H996.7v75.97H850.85v145.23h-76.58V536.85zm643.29.1h-145.88v145.17h-76.39V537.03h-145.88v-75.97h145.61V316.79h76.5v143.89h146.05c-.01 25.65-.01 50.67-.01 76.27zM556.38 682.32h-75.62V316.86h75.62v365.46z"
		style="fill-rule:evenodd;clip-rule:evenodd;fill:#000000" />
</svg>