<svg xmlns="http://www.w3.org/2000/svg" viewBox="0 70 640 500" style="enable-background:new 0 0 652 652"
    xml:space="preserve">
    <path
        d="M153.8 223.3 297.3 79.8c10.2-10.2 26.8-10.2 37 0l143.5 143.5c10.2 10.2 10.2 26.8 0 37L334.4 403.8c-10.2 10.2-26.8 10.2-37 0L153.8 260.3c-10.2-10.2-10.2-26.8 0-37"
        style="fill:#fff" />
    <path
        d="M315.8 405.5c-5.2 0-10.3-2-14.2-5.9L158.1 256.1c-3.9-3.9-5.9-9.1-5.9-14.2l61.8 3.6 4 67.4 3.9-66.9 84.9 5 4.7 80.1-61.5 3.6 61.9 3.6 3.9 67.2zm89-80.6-.6.6-83.9 4.9 4.7-79.6 84.5-5-4.7 79.1zm74.7-83.1c0 5.2-2 10.3-5.9 14.2l-51.8 51.8-3.7-62.4 61.4-3.6zm-92.4 100.8-57 57c-3.9 3.9-9.1 5.9-14.2 5.9l3.9-66.8 67.3 3.9zM315.9 78.1c5.2 0 10.3 2 14.2 5.9l143.5 143.5c3.9 3.9 5.9 9.1 5.9 14.2l-61.8-3.6-4-67.4-3.9 66.9-84.9-5-4.7-80.1 61.5-3.6-61.9-3.6-3.9-67.2zM244.6 141l57-57c3.9-3.9 9.1-5.9 14.2-5.9l-3.9 66.8-67.3-3.9zm-17.7 17.7.6-.6 83.9-4.9-4.7 79.6-84.5 5 4.7-79.1zm-68.8 68.9 51.8-51.8 3.7 62.4-61.3 3.6c-.1-5.2 1.8-10.3 5.8-14.2m-52.4 343.2H72c-13 0-23-1-30.1-3-7.1-2-13-5.6-17.9-10.7-10.7-11.1-16-26.8-16-47 0-22.4 6.9-39.4 20.6-51.1 4.4-3.6 9-6.2 13.9-7.7s11.4-2.2 19.5-2.2h43.8v21.7H72c-8.8 0-15.2.6-19.2 1.8-4.1 1.2-7.5 3.6-10.1 7.1-1.8 2.4-3 4.8-3.7 7.1-.6 2.3-1.2 6.5-1.6 12.6h68.4v21.7H37.3c.9 10.3 3.9 17.6 9.2 21.7 5.3 4.1 14.1 6.2 26.5 6.2h32.6v21.8zm101.2-27.9c0 5.5-1.4 10.6-4.1 15.5-2.7 4.9-6.2 8.2-10.3 10-3.5 1.6-10.2 2.4-19.9 2.4h-50.5v-19h43.4c5.7 0 9.5-.1 11.5-.4 4-.5 6-2.9 6-7.3 0-3.9-1.6-6.5-4.7-7.7-1.7-.6-5-.9-10-.9h-15c-10.2 0-17.7-1.8-22.4-5.5-6.7-5.2-10-12.7-10-22.3 0-9.4 3.4-16.6 10.2-21.7 3.7-2.8 10.2-4.2 19.7-4.2H203v19h-43.4c-4.7 0-7.8.3-9.3.7-2.8 1.1-4.2 3.5-4.2 7.1 0 4.1 1.7 6.8 5.1 7.8 1.8.6 5.4.9 10.8.9h14.4c9.7 0 17.3 2.2 22.6 6.6 5.3 4.6 7.9 10.9 7.9 19m71.6 27.9h-17.7c-10.7 0-18.3-2.5-22.7-7.5-4.4-5-6.7-13.6-6.7-25.9V501h-15.5v-19h15.5v-32.8h24.4V482h22.6v19h-22.6v32.3c0 7.7.8 12.7 2.5 15 1.6 2.4 5.1 3.6 10.5 3.6h9.7v18.9zm83.3-121.6-23.9 23h-14.2l15.7-23h22.4zM381 570.8h-51.4c-8.1 0-13.2-.1-15.1-.2-6-.6-10.6-2.1-13.9-4.6-6.8-5-10.2-12.2-10.2-21.7 0-6.1 1.5-11.5 4.5-16.1 3-4.7 6.9-7.8 11.8-9.4 4.1-1.3 10.8-2 20.1-2h29.9v-1.5c0-5.5-1.3-9.2-4-11.3-2.7-2.1-7.5-3.1-14.6-3.1h-41.2v-19h41.2c9.5 0 15.8.3 19 .9 6.6 1.2 11.9 4.2 16.1 8.9 5.4 6.2 8 15.9 8 29v50.1zm-24.5-18.9v-16.1h-32.3c-6.1 0-9.1 2.7-9.1 8.2 0 5.2 4.4 7.8 13.1 7.8h28.3zm121.3 18.9h-33.4c-8.9 0-16-.9-21.3-2.7-5.3-1.8-9.9-5-13.9-9.5-7.7-8.5-11.5-19.5-11.5-33 0-15.4 4.6-27.1 13.7-34.8 6.8-5.8 17.8-8.8 33-8.8h33.4v19h-29.2c-9.1 0-15.7 2-19.8 5.9-4.1 4-6.1 10.4-6.1 19.2 0 9 2.3 15.5 6.8 19.6 4.5 4.1 11.8 6.1 21.9 6.1h26.4v19zm43.4-97.9h-24.4v-23.7h24.4v23.7zm0 97.9h-24.4V482h24.4v88.8zm112-43.4c0 13.9-4.3 24.8-12.8 32.7-8.5 8-20.2 12-35 12-14.4 0-25.6-4.1-33.8-12.2-8.2-8.2-12.3-19.3-12.3-33.6 0-14 4.2-25.1 12.7-33.3 8.5-8.2 19.8-12.3 34.2-12.3 14.8 0 26.4 4.1 34.7 12.3 8.2 8.3 12.3 19.7 12.3 34.4m-25-.9c0-18-7.5-27-22.4-27-14.3 0-21.5 9-21.5 27 0 17.9 7.4 26.8 22.3 26.8 14.4 0 21.6-8.9 21.6-26.8"
        style="fill:#000" />
</svg>