<svg fill="none" height="53" viewBox="0 0 233 53" width="233" xmlns="http://www.w3.org/2000/svg">
    <g clip-rule="evenodd" fill-rule="evenodd">
        <path
            d="M120.16 43.953c-4.006 0-7.265-3.303-7.265-7.363 0-4.06 3.259-7.363 7.265-7.363 4.005 0 7.265 3.303 7.265 7.363 0 4.06-3.26 7.363-7.265 7.363zm10.445 2.615V26.613h-3.18v2.321l-.64-.535a10.368 10.368 0 0 0-6.625-2.41c-5.76 0-10.446 4.756-10.446 10.601 0 5.845 4.686 10.6 10.446 10.6 2.409 0 4.761-.855 6.625-2.41l.64-.534v2.322zm-49.395-.004V15.822h-3.182v13.752H59.543V15.822h-3.18v30.742h3.18V32.812h18.485v13.752z"
            fill="#000000" />
        <path
            d="M28.031 37.905H17.218a30.64 30.64 0 0 1 2.588 12.365c0 .82-.033 1.633-.096 2.437h5.828a31.233 31.233 0 0 1-.095-2.437c0-4.399.924-8.581 2.588-12.365zm-12.48-3.245h14.147a30.873 30.873 0 0 1 5.32-6.685v-.056H10.231v.056a30.88 30.88 0 0 1 5.32 6.684z"
            fill="#000000" />
        <path
            d="M35.014 24.69s.6-9.769-9.49-9.769c-4.495 0-7.432 2.173-12.945 2.173-5.018 0-10.071-4.11-9.441-10.84 0 0-3.138 3.016-3.138 7.523 0 5.934 4.806 10.882 10.798 10.902 12.781.042 24.215.01 24.215.01z"
            fill="#000000" />
        <path
            d="M35.014 24.69s.752-8.105-7.622-9.71c-4.701-.901-9.664-.735-12.906-4.9-2.988-3.839-1.941-8.107-1.127-9.82-2.099.964-6.148 4.195-6.148 9.723 0 8.475 8.537 11.594 11.384 12.529 7.25 2.38 16.419 2.178 16.419 2.178z"
            fill="#000000" />
        <path
            d="M35.013 24.687c.003-.032.26-2.956-1.347-5.632v-.001l-.002-.002v-.002c-.902-1.57-2.402-3.032-4.88-3.717-.032-.01-.06-.022-.091-.031-.003-.001-.002.003-.004.003-.228-.06-.464-.115-.708-.162l-.009-.002a11.67 11.67 0 0 0-.75-.118l-.026-.003a12.795 12.795 0 0 0-.792-.072l-.03-.002a14.8 14.8 0 0 0-.852-.025c-4.494 0-7.43 2.173-12.944 2.173a9.52 9.52 0 0 1-3.258-.582c2.719 3.698 7.327 5.36 9.274 6 5.84 1.917 12.923 2.158 15.458 2.18l.96-.003z"
            fill="#000000" />
        <path
            d="M168.15 29.241c3.418 0 6.2 2.819 6.2 6.283v11.04h3.181v-11.04c0-5.25-4.208-9.52-9.381-9.52a9.21 9.21 0 0 0-5.575 1.868l-.626.471v-12.52h-3.18v30.741h3.18v-11.04c0-3.464 2.782-6.283 6.201-6.283zm29.821-10.205v-3.238h-4.312v3.238h.566v24.29h-.566v3.238h4.312v-3.238h-.565v-24.29zm28.546 19.108-.268.386-3.072-3.116-2.268 2.3 3.071 3.115-.373.266a11.752 11.752 0 0 1-6.871 2.21c-6.595 0-11.961-5.438-11.961-12.124 0-6.686 5.366-12.126 11.961-12.126 6.594 0 11.96 5.44 11.96 12.126a12.15 12.15 0 0 1-2.179 6.963zm5.379-6.963c0-8.483-6.801-15.384-15.16-15.384-8.36 0-15.162 6.901-15.162 15.384 0 8.482 6.802 15.383 15.162 15.383 3.374 0 6.573-1.109 9.249-3.208l.275-.215 3.21 3.256 2.268-2.3-3.212-3.257.205-.27a15.355 15.355 0 0 0 3.165-9.39zM136.05 46.565h3.18V15.764h-3.18zm18.68-19.28h-4.14V15.764h-3.181v11.52h-4.14v3.36h4.14v15.92h3.181v-15.92h4.14zm-58.637 1.991c3.396 0 6.271 2.272 7.188 5.375H88.904c.917-3.103 3.792-5.375 7.189-5.375zm7.072 11.113c-1.45 2.507-3.938 3.88-7.072 3.88-3.76 0-6.88-2.783-7.415-6.396h16.377v-.008l.079.01h1.616c.037-.367.06-.736.06-1.103 0-5.91-4.808-10.717-10.717-10.717-5.91 0-10.718 4.808-10.718 10.717 0 5.91 4.808 10.718 10.718 10.718 4.163 0 7.623-1.877 9.673-5.186z"
            fill="#000000" />
    </g>
</svg>