<svg width="85" height="42" viewBox="0 0 85 42" fill="none" xmlns="http://www.w3.org/2000/svg">
    <g clip-path="url(#a)" fill="#000">
        <path
            d="M84.253 24.401c-19.73-3.055-46.147-1.332-64.266 4.073-.232.066-.374.183-.438.418-.052.17-.232.849-.258.966-.064.261.078.588.387.523 21.211-4.896 40.696-5.262 62.1-.327.902.209 1.547-.34 1.843-1.11 0 0 .94-2.415 1.289-3.25.258-.601-.026-1.189-.657-1.293Z" />
        <path
            d="M21.56 23.108c.27 1.254 2.254 2.65 4.007 2.194 1.276-.327 2.86-3.094 4.291-6.189a3.109 3.109 0 0 0 0 .497c.27 1.488 2.861 2.545 4.06 2.284.644-.143 1.275-.77 1.868-1.67.49.809 2.242 1.135 3.338 1.03a1.232 1.232 0 0 0 1.005-.665c.593-1.24 3.621-6.946 6.817-12.194-1.263 4.269-2.5 8.89-2.436 9.661.09 1.044 2.204 1.501 3.467 1.37.554-.051.812-.247.94-.521.516-1.071 2.964-5.536 5.735-9.87-1.082 3.472-2.126 7.01-2.075 7.702.13 1.515 2.951 2.82 4.176 2.703 1.275-.13 2.667-2.063 3.917-4.374.683 2.285 3.054 4.583 4.742 4.805 5.645.757 12.449-9.257 14.085-13.657a.652.652 0 0 0 .052-.17c2.423 4.388 3.801 10.262 1.005 12.404-1.353 1.031-3.338-.431-2.667-3.343.09-.404-.207-.718-.67-.561-.812.3-1.817.992-2.758 1.828a.881.881 0 0 0-.322.692c.09 3.63 4.458 5.052 7.77 2.089 3.544-3.173 4.55-10.275-.167-18.866-.116-.209-.31-.352-.593-.274-.619.157-2.797.992-3.789 1.684a.61.61 0 0 0-.258.444c-1.288 4.961-7.744 16.294-12.59 15.654-.799-.105-1.018-.757-.902-1.763a17.3 17.3 0 0 1 .503-2.154c4.549.248 9.845-6.763 9.832-9.948C73.93 1.92 70.786.052 68.724.065c-1.791.013-5.206 4.818-7.1 9.622-1.353 2.99-3.145 6.776-4.06 6.868-.103.013-.18-.105-.206-.327-.167-1.958 2.887-11.254 3.57-12.781.167-.392 0-.862-.348-1.045a14.22 14.22 0 0 0-2.371-.888c-.503-.13-.915.157-1.225.523-.45.548-4.007 5.679-6.855 10.3 1.07-4.19 2.59-8.734 2.964-9.87.116-.365-.065-.691-.348-.809-.58-.248-1.47-.627-2.397-.927-.49-.157-.954.13-1.237.51-.412.548-4.356 6.67-7.5 12.037.644-2.285 2.796-9.23 2.81-9.27.076-.261 0-.535-.207-.627a22.37 22.37 0 0 0-2.784-1.083c-.515-.157-.721.039-.863.496-.425 1.423-4.768 15.85-6.108 16.137-.142.026-.194-.079-.232-.3-.322-1.828 1.804-10.55 2.28-12.351.13-.47.078-.718-.321-.927-.593-.3-1.895-.6-2.281-.666-.387-.052-.567.117-.683.483-.18.535-.387 1.162-.774 2.246 0 0-2.912-3.12-5.335-2.481-2.809.731-6.301 14.649-5.554 18.173Zm48.8-20.34c.89 2.794-3.298 8.369-5.734 9.556 1.572-4.19 4.33-8.198 5.735-9.556ZM29.382 7.494c.748-.196 2.32 1.41 2.462 1.58-1.572 4.517-5.194 13.003-6.057 13.225-.064.013-.116-.052-.142-.157-.36-1.684 2.68-14.374 3.737-14.648Zm-7.745-3.538c-.89-.274-2.5-.614-3.763-.692-.593-.04-.954.287-1.005.835-1.25 12.442-2.475 31.504-7.848 34.206-2.797 1.41-5.258-1.854-2.101-7.611.284-.51.052-1.045-.593-1.032-1.61.014-3.389.418-4.446.81-.373.143-.67.444-.824.81-3.75 8.63 3.273 12.794 8.518 9.713 5.618-3.316 8.556-14.283 12.487-36.243.077-.418-.078-.692-.425-.796Z" />
    </g>
    <defs>
        <clipPath id="a">
            <path fill="#fff" d="M0 0h85v42H0z" />
        </clipPath>
    </defs>
</svg>