<?xml version="1.0" encoding="UTF-8" standalone="no"?>
<!DOCTYPE svg PUBLIC "-//W3C//DTD SVG 1.1//EN" "http://www.w3.org/Graphics/SVG/1.1/DTD/svg11.dtd">
<svg xmlns="http://www.w3.org/2000/svg" version="1.1" viewBox="0.00 0.00 340.00 280.00">
<path fill="#000" d="
  M 177.04 84.98
  C 214.82 77.10 258.97 75.30 294.24 93.49
  C 311.42 102.35 325.15 119.80 322.20 139.94
  C 318.57 164.76 295.63 187.74 275.19 200.48
  Q 274.56 200.87 274.50 200.13
  L 272.11 170.56
  Q 272.07 170.02 272.47 169.66
  C 288.99 154.78 303.14 130.21 288.99 109.64
  C 267.63 78.60 208.84 80.64 177.55 87.12
  Q 177.03 87.23 177.09 87.75
  C 180.20 116.44 165.84 133.26 140.18 141.98
  Q 139.49 142.21 140.01 142.73
  L 180.86 183.25
  A 0.18 0.18 0.0 0 1 180.73 183.56
  L 146.12 183.48
  A 1.34 1.34 0.0 0 1 145.21 183.10
  L 107.07 144.92
  A 0.58 0.58 0.0 0 0 106.66 144.75
  L 55.91 144.76
  A 0.41 0.41 0.0 0 1 55.50 144.35
  L 55.50 121.80
  Q 55.50 121.28 56.02 121.27
  Q 88.30 121.22 120.48 121.19
  C 139.96 121.17 157.29 109.38 151.27 87.49
  C 147.31 73.12 132.93 70.42 120.08 70.26
  Q 82.18 69.81 42.70 70.06
  Q 41.34 70.07 41.34 71.43
  L 41.36 182.94
  Q 41.36 183.50 40.80 183.50
  L 17.75 183.50
  Q 17.25 183.50 17.25 183.00
  L 17.25 46.52
  A 0.51 0.51 0.0 0 1 17.76 46.01
  Q 66.25 45.99 115.00 45.98
  C 141.06 45.98 170.36 55.14 176.32 84.51
  A 0.61 0.60 -11.4 0 0 177.04 84.98
  Z"
/>
<path fill="#ffffff" d="
  M 198.78 169.50
  L 265.01 169.50
  Q 265.52 169.50 265.52 170.01
  L 265.54 183.10
  Q 265.54 183.50 265.15 183.50
  L 186.02 183.50
  A 0.52 0.51 -0.0 0 1 185.50 182.99
  Q 185.50 169.99 185.49 156.75
  C 185.49 145.93 194.24 136.78 204.71 134.25
  Q 208.57 133.31 217.99 133.27
  Q 230.74 133.22 243.49 133.24
  C 252.22 133.26 255.18 121.44 246.63 117.84
  C 244.41 116.90 242.16 117.01 239.68 116.98
  Q 214.46 116.72 186.86 116.78
  A 0.09 0.08 -90.0 0 1 186.78 116.69
  L 186.70 103.47
  Q 186.70 102.99 187.18 102.99
  Q 213.00 102.97 238.79 103.05
  Q 248.38 103.08 252.60 104.58
  C 261.68 107.82 267.68 116.24 267.25 125.94
  C 266.68 138.96 255.86 147.11 243.42 147.41
  Q 234.68 147.63 211.50 147.48
  C 207.24 147.45 201.61 149.69 199.35 153.61
  C 197.37 157.04 198.28 164.39 197.96 168.61
  A 0.83 0.82 -87.7 0 0 198.78 169.50
  Z"
/>
<path fill="#ffffff" d="
  M 72.90 202.53
  A 0.37 0.37 0.0 0 0 72.20 202.42
  L 58.96 231.99
  A 1.91 1.90 44.4 0 1 55.50 232.02
  L 41.53 202.29
  A 0.40 0.40 0.0 0 0 40.76 202.43
  L 38.42 232.42
  A 0.65 0.64 -86.7 0 1 37.76 233.02
  L 34.38 232.92
  Q 33.65 232.89 33.72 232.16
  L 37.62 191.43
  Q 37.67 190.95 38.14 190.94
  L 44.64 190.75
  Q 45.16 190.73 45.38 191.20
  Q 52.13 205.43 58.77 219.70
  A 0.38 0.38 0.0 0 0 59.46 219.70
  L 72.31 191.11
  A 0.63 0.61 -77.1 0 1 72.87 190.75
  L 79.19 190.75
  Q 79.89 190.75 79.96 191.45
  L 84.20 232.38
  A 0.57 0.57 0.0 0 1 83.63 233.00
  L 76.79 232.99
  Q 76.00 232.99 75.92 232.21
  L 72.90 202.53
  Z"
/>
<path fill="#ffffff" d="
  M 156.06 194.19
  C 167.89 202.08 165.97 226.20 152.73 231.96
  C 149.17 233.52 138.40 233.72 134.75 232.09
  C 124.24 227.40 123.03 214.47 125.19 204.59
  C 128.34 190.20 145.19 186.93 156.06 194.19
  Z
  M 150.06 197.69
  C 145.37 194.09 134.34 194.69 133.33 202.07
  C 132.04 211.55 130.67 231.33 146.78 228.51
  C 150.42 227.87 153.20 227.06 153.99 223.27
  C 155.52 215.90 156.63 202.73 150.06 197.69
  Z"
/>
<path fill="#ffffff" d="
  M 182.87 216.29
  A 1.53 1.53 0.0 0 0 179.98 216.98
  L 180.04 232.45
  Q 180.05 233.01 179.49 233.00
  L 172.45 232.98
  Q 171.98 232.97 171.98 232.51
  L 171.92 191.96
  Q 171.92 191.49 172.39 191.43
  C 181.54 190.14 196.45 188.80 197.97 200.73
  Q 199.11 209.64 190.94 214.13
  Q 190.48 214.38 190.72 214.84
  C 193.54 220.24 197.27 228.32 203.50 230.13
  A 1.44 1.44 0.0 0 1 203.16 232.95
  C 198.33 233.17 193.21 234.25 190.15 229.32
  Q 186.16 222.88 182.87 216.29
  Z
  M 179.96 195.93
  L 180.02 210.83
  A 0.77 0.77 0.0 0 0 180.79 211.59
  L 182.74 211.59
  A 7.00 6.98 -0.2 0 0 189.71 204.58
  L 189.71 202.10
  A 7.00 6.98 -0.2 0 0 182.68 195.15
  L 180.73 195.15
  A 0.77 0.77 0.0 0 0 179.96 195.93
  Z"
/>
<path fill="#ffffff" d="
  M 257.19 218.56
  C 253.65 215.47 246.48 214.26 243.03 210.83
  C 235.29 203.14 241.47 192.50 250.78 191.03
  Q 256.19 190.17 263.62 191.73
  Q 264.04 191.81 263.95 192.24
  L 262.83 197.54
  Q 262.73 198.04 262.23 197.88
  Q 257.77 196.42 252.51 196.02
  C 245.30 195.47 245.02 203.41 250.50 205.77
  C 258.05 209.04 264.76 210.81 265.71 218.86
  C 266.36 224.41 263.04 229.64 258.00 231.94
  C 253.64 233.93 242.43 233.81 238.59 230.59
  Q 238.26 230.32 238.39 229.91
  L 239.97 224.72
  A 0.39 0.38 -67.0 0 1 240.52 224.49
  C 244.81 226.90 250.84 229.18 255.74 227.68
  C 258.92 226.70 259.47 220.55 257.19 218.56
  Z"
/>
<path fill="#ffffff" d="
  M 25.75 191.64
  L 25.75 232.61
  A 0.39 0.39 0.0 0 1 25.36 233.00
  L 17.64 233.00
  A 0.39 0.39 0.0 0 1 17.25 232.61
  L 17.25 191.63
  A 0.39 0.39 0.0 0 1 17.64 191.24
  L 25.36 191.25
  A 0.39 0.39 0.0 0 1 25.75 191.64
  Z"
/>
<path fill="#ffffff" d="
  M 106.49 191.03
  C 125.52 191.56 121.06 218.48 103.27 216.78
  A 1.71 1.71 0.0 0 1 102.97 213.43
  Q 111.28 211.12 110.40 202.77
  C 109.81 197.14 106.67 194.06 100.75 195.52
  Q 100.26 195.65 100.26 196.16
  L 100.35 232.54
  A 0.45 0.45 0.0 0 1 99.90 232.99
  L 92.88 233.00
  A 0.62 0.62 0.0 0 1 92.26 232.38
  L 92.23 191.86
  A 0.57 0.57 0.0 0 1 92.77 191.29
  Q 99.52 190.83 106.49 191.03
  Z"
/>
<path fill="#ffffff" d="
  M 224.50 196.34
  L 224.51 232.39
  A 0.59 0.59 0.0 0 1 223.92 232.98
  L 216.83 232.98
  A 0.59 0.59 0.0 0 1 216.24 232.39
  L 216.25 196.27
  A 0.59 0.59 0.0 0 0 215.67 195.68
  L 204.68 195.43
  A 0.59 0.59 0.0 0 1 204.11 194.80
  L 204.33 191.80
  A 0.59 0.59 0.0 0 1 204.92 191.25
  L 236.15 191.25
  A 0.59 0.59 0.0 0 1 236.73 191.95
  L 236.17 194.83
  A 0.59 0.59 0.0 0 1 235.61 195.31
  L 225.07 195.75
  A 0.59 0.59 0.0 0 0 224.50 196.34
  Z"
/>
</svg>
