<svg width="390" height="161" viewBox="0 0 390 161" fill="none" xmlns="http://www.w3.org/2000/svg">
    <path d="M29 57V4H386V157H29V113.286" stroke="#494B4A" stroke-width="7" />
    <path
        d="M3.28693 106V68.1818H18.2074C21.0758 68.1818 23.5194 68.7296 25.5384 69.8253C27.5573 70.9086 29.0961 72.4167 30.1548 74.3494C31.2259 76.2699 31.7614 78.4858 31.7614 80.9972C31.7614 83.5085 31.2197 85.7244 30.1364 87.6449C29.053 89.5653 27.4834 91.0611 25.4276 92.1321C23.384 93.2031 20.9096 93.7386 18.0043 93.7386H8.49432V87.331H16.7116C18.2505 87.331 19.5185 87.0663 20.5156 86.5369C21.5251 85.9953 22.276 85.2505 22.7685 84.3026C23.2732 83.3423 23.5256 82.2405 23.5256 80.9972C23.5256 79.7415 23.2732 78.6458 22.7685 77.7102C22.276 76.7623 21.5251 76.0298 20.5156 75.5128C19.5062 74.9834 18.2259 74.7188 16.6747 74.7188H11.2827V106H3.28693ZM44.1335 106.536C42.3239 106.536 40.7112 106.222 39.2955 105.594C37.8797 104.954 36.7595 104.012 35.9347 102.768C35.1222 101.513 34.7159 99.9493 34.7159 98.0781C34.7159 96.5024 35.0052 95.179 35.5838 94.108C36.1624 93.0369 36.9503 92.1752 37.9474 91.5227C38.9446 90.8703 40.0772 90.3778 41.3452 90.0455C42.6255 89.7131 43.9673 89.4792 45.3707 89.3438C47.0204 89.1714 48.3499 89.0114 49.3594 88.8636C50.3688 88.7036 51.1013 88.4697 51.5568 88.1619C52.0123 87.8542 52.2401 87.3987 52.2401 86.7955V86.6847C52.2401 85.5152 51.8707 84.6103 51.1321 83.9702C50.4058 83.33 49.3717 83.0099 48.0298 83.0099C46.6141 83.0099 45.4877 83.3239 44.6506 83.9517C43.8134 84.5672 43.2595 85.3428 42.9886 86.2784L35.7131 85.6875C36.0824 83.964 36.8087 82.4744 37.892 81.2188C38.9754 79.9508 40.3726 78.9782 42.0838 78.3011C43.8073 77.6117 45.8016 77.267 48.0668 77.267C49.6425 77.267 51.1506 77.4517 52.5909 77.821C54.0436 78.1903 55.33 78.7628 56.4503 79.5384C57.5829 80.3139 58.4754 81.3111 59.1278 82.5298C59.7803 83.7363 60.1065 85.1828 60.1065 86.8693V106H52.6463V102.067H52.4247C51.9692 102.953 51.3598 103.735 50.5966 104.412C49.8333 105.077 48.9162 105.6 47.8452 105.982C46.7741 106.351 45.5369 106.536 44.1335 106.536ZM46.3864 101.107C47.5436 101.107 48.5653 100.879 49.4517 100.423C50.3381 99.9555 51.0336 99.3277 51.5384 98.5398C52.0431 97.7519 52.2955 96.8594 52.2955 95.8622V92.8523C52.0492 93.0123 51.7107 93.16 51.2798 93.2955C50.8613 93.4186 50.3873 93.5355 49.858 93.6463C49.3286 93.7448 48.7992 93.8371 48.2699 93.9233C47.7405 93.9972 47.2604 94.0649 46.8295 94.1264C45.9063 94.2618 45.0999 94.4773 44.4105 94.7727C43.7211 95.0682 43.1856 95.4683 42.804 95.973C42.4223 96.4654 42.2315 97.081 42.2315 97.8196C42.2315 98.8906 42.6193 99.7093 43.3949 100.276C44.1828 100.83 45.1799 101.107 46.3864 101.107ZM91.6371 77.6364L81.7209 106H72.8572L62.9411 77.6364H71.2507L77.1413 97.9304H77.4368L83.3089 77.6364H91.6371ZM95.6626 106V77.6364H103.529V106H95.6626ZM99.6143 73.9801C98.4448 73.9801 97.4415 73.5923 96.6044 72.8168C95.7796 72.0289 95.3672 71.0871 95.3672 69.9915C95.3672 68.9081 95.7796 67.9787 96.6044 67.2031C97.4415 66.4152 98.4448 66.0213 99.6143 66.0213C100.784 66.0213 101.781 66.4152 102.606 67.2031C103.443 67.9787 103.862 68.9081 103.862 69.9915C103.862 71.0871 103.443 72.0289 102.606 72.8168C101.781 73.5923 100.784 73.9801 99.6143 73.9801ZM109.831 106V77.6364H117.328V82.6406H117.66C118.251 80.9787 119.236 79.6676 120.615 78.7074C121.993 77.7472 123.643 77.267 125.564 77.267C127.509 77.267 129.164 77.7533 130.531 78.7259C131.897 79.6861 132.808 80.991 133.264 82.6406H133.559C134.138 81.0156 135.184 79.7169 136.699 78.7443C138.225 77.7595 140.029 77.267 142.109 77.267C144.756 77.267 146.904 78.1103 148.554 79.7969C150.216 81.4711 151.047 83.8471 151.047 86.9247V106H143.199V88.4759C143.199 86.9001 142.78 85.7183 141.943 84.9304C141.106 84.1425 140.059 83.7486 138.804 83.7486C137.376 83.7486 136.261 84.2041 135.461 85.1151C134.661 86.0137 134.261 87.2017 134.261 88.679V106H126.635V88.3097C126.635 86.9186 126.234 85.8106 125.434 84.9858C124.646 84.161 123.606 83.7486 122.314 83.7486C121.44 83.7486 120.652 83.9702 119.95 84.4134C119.261 84.8442 118.713 85.4536 118.306 86.2415C117.9 87.017 117.697 87.928 117.697 88.9744V106H109.831ZM170.186 106.554C167.269 106.554 164.757 105.963 162.652 104.781C160.56 103.587 158.947 101.901 157.814 99.7216C156.682 97.5303 156.115 94.9389 156.115 91.9474C156.115 89.0298 156.682 86.4692 157.814 84.2656C158.947 82.062 160.541 80.3447 162.597 79.1136C164.665 77.8826 167.09 77.267 169.873 77.267C171.744 77.267 173.486 77.5687 175.098 78.1719C176.723 78.7628 178.139 79.6553 179.346 80.8494C180.564 82.0436 181.512 83.5455 182.189 85.3551C182.866 87.1525 183.205 89.2576 183.205 91.6705V93.831H159.255V88.956H175.8C175.8 87.8234 175.554 86.8201 175.061 85.946C174.569 85.072 173.886 84.3887 173.012 83.8963C172.15 83.3916 171.147 83.1392 170.002 83.1392C168.808 83.1392 167.749 83.4162 166.826 83.9702C165.915 84.5118 165.201 85.2443 164.684 86.1676C164.167 87.0786 163.902 88.0942 163.89 89.2145V93.8494C163.89 95.2528 164.148 96.4654 164.665 97.4872C165.194 98.509 165.939 99.2969 166.9 99.8509C167.86 100.405 168.998 100.682 170.316 100.682C171.19 100.682 171.99 100.559 172.716 100.312C173.443 100.066 174.064 99.697 174.581 99.2045C175.098 98.7121 175.492 98.1089 175.763 97.3949L183.039 97.875C182.669 99.6231 181.912 101.15 180.767 102.455C179.635 103.747 178.17 104.757 176.373 105.483C174.587 106.197 172.525 106.554 170.186 106.554ZM196.205 89.6023V106H188.338V77.6364H195.836V82.6406H196.168C196.796 80.991 197.848 79.6861 199.326 78.7259C200.803 77.7533 202.594 77.267 204.699 77.267C206.669 77.267 208.386 77.6979 209.851 78.5597C211.316 79.4214 212.455 80.6525 213.267 82.2528C214.08 83.8409 214.486 85.7367 214.486 87.9403V106H206.62V89.3438C206.632 87.608 206.189 86.2538 205.29 85.2812C204.391 84.2964 203.154 83.804 201.578 83.804C200.52 83.804 199.584 84.0317 198.772 84.4872C197.971 84.9427 197.344 85.6075 196.888 86.4815C196.445 87.3433 196.217 88.3835 196.205 89.6023ZM235.773 77.6364V83.5455H218.692V77.6364H235.773ZM222.57 70.8409H230.436V97.2841C230.436 98.0104 230.547 98.5767 230.768 98.983C230.99 99.3769 231.298 99.6539 231.692 99.8139C232.098 99.974 232.566 100.054 233.095 100.054C233.464 100.054 233.834 100.023 234.203 99.9616C234.572 99.8878 234.856 99.8324 235.053 99.7955L236.29 105.649C235.896 105.772 235.342 105.914 234.628 106.074C233.914 106.246 233.046 106.351 232.024 106.388C230.128 106.462 228.466 106.209 227.038 105.631C225.623 105.052 224.521 104.153 223.733 102.935C222.945 101.716 222.557 100.177 222.57 98.3182V70.8409ZM242.781 106V68.1818H246.234V102.898H264.256V106H242.781ZM279.269 106.646C277.558 106.646 275.995 106.314 274.579 105.649C273.163 104.972 272.037 104 271.2 102.732C270.362 101.451 269.944 99.9001 269.944 98.0781C269.944 96.6747 270.209 95.4929 270.738 94.5327C271.267 93.5724 272.018 92.7846 272.991 92.169C273.963 91.5535 275.114 91.0672 276.444 90.7102C277.773 90.3532 279.238 90.0762 280.839 89.8793C282.427 89.6823 283.769 89.5099 284.864 89.3622C285.972 89.2145 286.816 88.9806 287.394 88.6605C287.973 88.3404 288.262 87.8234 288.262 87.1094V86.4446C288.262 84.5118 287.683 82.9915 286.526 81.8835C285.381 80.7633 283.732 80.2031 281.577 80.2031C279.534 80.2031 277.866 80.6525 276.573 81.5511C275.293 82.4498 274.394 83.5085 273.877 84.7273L270.756 83.6009C271.397 82.0497 272.283 80.8125 273.415 79.8892C274.548 78.9536 275.816 78.2827 277.219 77.8764C278.623 77.4579 280.045 77.2486 281.485 77.2486C282.568 77.2486 283.695 77.3902 284.864 77.6733C286.046 77.9564 287.142 78.4489 288.151 79.1506C289.161 79.84 289.979 80.8063 290.607 82.0497C291.235 83.2808 291.549 84.8442 291.549 86.7401V106H288.262V101.513H288.059C287.665 102.35 287.08 103.162 286.305 103.95C285.529 104.738 284.557 105.384 283.387 105.889C282.218 106.394 280.845 106.646 279.269 106.646ZM279.712 103.636C281.46 103.636 282.975 103.249 284.255 102.473C285.535 101.697 286.52 100.67 287.21 99.3892C287.911 98.0966 288.262 96.6747 288.262 95.1236V91.0241C288.016 91.258 287.603 91.4673 287.025 91.652C286.459 91.8366 285.8 92.0028 285.049 92.1506C284.31 92.286 283.572 92.4029 282.833 92.5014C282.094 92.5999 281.43 92.6861 280.839 92.7599C279.238 92.9569 277.872 93.2647 276.739 93.6832C275.607 94.1018 274.739 94.6804 274.136 95.419C273.532 96.1454 273.231 97.081 273.231 98.2259C273.231 99.9493 273.846 101.285 275.077 102.233C276.308 103.169 277.853 103.636 279.712 103.636ZM300.976 106V68.1818H304.281V83.0469H304.577C304.946 82.1974 305.475 81.3234 306.165 80.4247C306.866 79.526 307.784 78.7751 308.916 78.1719C310.061 77.5563 311.501 77.2486 313.237 77.2486C315.564 77.2486 317.607 77.8641 319.368 79.0952C321.128 80.3139 322.501 82.0251 323.486 84.2287C324.471 86.42 324.963 88.9744 324.963 91.892C324.963 94.822 324.471 97.3887 323.486 99.5923C322.513 101.796 321.147 103.513 319.386 104.744C317.638 105.975 315.607 106.591 313.293 106.591C311.569 106.591 310.129 106.283 308.972 105.668C307.827 105.052 306.903 104.295 306.202 103.396C305.5 102.485 304.958 101.599 304.577 100.737H304.17V106H300.976ZM304.226 91.8366C304.226 94.1264 304.564 96.1577 305.241 97.9304C305.931 99.6908 306.916 101.076 308.196 102.085C309.489 103.082 311.052 103.581 312.886 103.581C314.77 103.581 316.364 103.064 317.669 102.03C318.974 100.983 319.965 99.5739 320.642 97.8011C321.319 96.0284 321.658 94.0402 321.658 91.8366C321.658 89.6577 321.319 87.6941 320.642 85.946C319.977 84.1979 318.992 82.813 317.688 81.7912C316.383 80.7571 314.782 80.2401 312.886 80.2401C311.04 80.2401 309.47 80.7386 308.178 81.7358C306.897 82.7206 305.919 84.0871 305.241 85.8352C304.564 87.571 304.226 89.5715 304.226 91.8366ZM351.24 83.8594L348.23 84.7088C347.935 83.8594 347.516 83.09 346.974 82.4006C346.433 81.7112 345.725 81.1634 344.851 80.7571C343.989 80.3509 342.918 80.1477 341.638 80.1477C339.717 80.1477 338.142 80.6032 336.911 81.5142C335.679 82.4252 335.064 83.6009 335.064 85.0412C335.064 86.2599 335.482 87.2509 336.32 88.0142C337.169 88.7652 338.474 89.3622 340.234 89.8054L344.518 90.858C346.894 91.4366 348.673 92.3537 349.855 93.6094C351.049 94.8651 351.646 96.4408 351.646 98.3366C351.646 99.937 351.203 101.359 350.317 102.602C349.43 103.846 348.193 104.824 346.605 105.538C345.029 106.24 343.201 106.591 341.121 106.591C338.351 106.591 336.067 105.969 334.27 104.726C332.473 103.47 331.321 101.661 330.817 99.2969L333.974 98.5213C334.381 100.208 335.175 101.482 336.357 102.344C337.551 103.205 339.12 103.636 341.065 103.636C343.244 103.636 344.986 103.15 346.291 102.178C347.596 101.193 348.249 99.9616 348.249 98.4844C348.249 97.3395 347.867 96.3793 347.104 95.6037C346.34 94.8158 345.183 94.2372 343.632 93.8679L338.997 92.7599C336.535 92.169 334.713 91.2334 333.531 89.9531C332.349 88.6728 331.759 87.0848 331.759 85.1889C331.759 83.6255 332.183 82.2528 333.033 81.071C333.882 79.8769 335.052 78.9413 336.541 78.2642C338.031 77.5871 339.73 77.2486 341.638 77.2486C344.235 77.2486 346.31 77.8395 347.861 79.0213C349.424 80.1908 350.551 81.8035 351.24 83.8594Z"
        fill="#494B4A" />
</svg>